<svg xmlns="http://www.w3.org/2000/svg" width="85.223" height="101.834" viewBox="0 0 85.223 101.834"><defs><style>.a{fill:#4f99d5;}.b{fill:#ff8400;}</style></defs><g transform="translate(-1333.997 -1242)"><ellipse class="a" cx="25" cy="24" rx="25" ry="24" transform="translate(1344 1266)"/><path class="b" d="M1355.51,1283.987c.641,0,5.338,2.776,9.181,2.562s7.686-4.057,8.753-5.124,8.754-5.124,9.608-3.416,4.484,3.843,3.843,8.54,1.922,7.9-3.843,10.888-9.18,4.7-14.731,1.281S1355.51,1283.987,1355.51,1283.987Z"/><path class="b" d="M1350.3,1284.611c4.106-1.478,8.7-1.478,9.69,2.792a27.08,27.08,0,0,0,3.449,8.54c.493.493,0,1.642,0,1.642s-6.9,0-7.883-.657a7.885,7.885,0,0,1-4.106-3.285C1349.6,1290.826,1348.02,1285.432,1350.3,1284.611Z"/><g transform="translate(1292.242 1242)"><path d="M135.985,140.939c0-13.515-11.887-24.51-26.5-24.51s-26.5,11-26.5,24.51,11.887,24.511,26.5,24.511S135.985,154.455,135.985,140.939Zm-50.013,0c0-11.87,10.549-21.527,23.515-21.527S133,129.069,133,140.939s-10.549,21.527-23.515,21.527-23.515-9.657-23.515-21.527Z" transform="translate(-33.032 -93.27)"/><path d="M136.989,199.1a15.117,15.117,0,0,0,2.49.21,13.109,13.109,0,0,0,8.48-3.009c3.992-3.319,6.276-7.861,6.109-12.148a11.1,11.1,0,0,0-5.052-8.774c-5.284-3.738-9.477-.067-12.847,2.883-2.086,1.826-4.056,3.551-6.032,3.652a8.236,8.236,0,0,1-4.967-1.3c-1.862-1.014-3.972-2.165-8.183-.765a.31.31,0,0,0-.044.02c-1.609.456-3.952,1.85-3.907,6.092a9.59,9.59,0,0,0,4.01,7.958,14.994,14.994,0,0,0,8.759,2.552,17.771,17.771,0,0,0,4.195-.491A15.051,15.051,0,0,0,136.989,199.1Zm-6.7-14.208c3.009-.154,5.467-2.306,7.844-4.386,3.592-3.145,5.957-4.957,9.159-2.692a8.118,8.118,0,0,1,3.794,6.455c.129,3.317-1.8,7.048-5.035,9.738a10.475,10.475,0,0,1-8.571,2.151,11.314,11.314,0,0,1-7.816-5.007l-.407-.671a63.332,63.332,0,0,0-4.429-6.681A10.547,10.547,0,0,0,130.29,184.889ZM118.8,191.5a6.626,6.626,0,0,1-2.783-5.577c-.027-2.642,1.176-3.06,1.795-3.208,3-.4,5.866,4.318,8.893,9.31l.408.673c.142.234.3.462.454.687A12.923,12.923,0,0,1,118.8,191.5Z" transform="translate(-57.101 -139.223)"/><path d="M126.968,82.69a13.928,13.928,0,0,0-6.347-11.005,8.932,8.932,0,0,0-9.01-1.261,13.667,13.667,0,0,0-2.075,1.059,367.485,367.485,0,0,0-.85-58.284,19.711,19.711,0,0,0,2.361-6.01,4.126,4.126,0,0,0-1.96-4.53,4.059,4.059,0,0,0-4.834.462,3.419,3.419,0,0,1-2.511,1.012c-1.5,0-2.2-.688-3.171-1.64a6.794,6.794,0,0,0-10.518,0c-.971.952-1.672,1.64-3.17,1.64s-2.2-.688-3.17-1.64a6.794,6.794,0,0,0-10.518,0c-.971.952-1.672,1.64-3.17,1.64s-2.2-.688-3.17-1.64a6.793,6.793,0,0,0-10.517,0c-.971.952-1.672,1.64-3.169,1.64a3.417,3.417,0,0,1-2.51-1.012,4.059,4.059,0,0,0-4.833-.463,4.125,4.125,0,0,0-1.959,4.53A19.7,19.7,0,0,0,44.223,13.2c-.313,3.309-.584,6.635-.8,9.9a1.492,1.492,0,1,0,2.977.2c.205-3.075.456-6.207.747-9.326a245.032,245.032,0,0,1,58.619,0,364.353,364.353,0,0,1,.622,59.837c-.62.518-1.231,1.051-1.835,1.581l-.417.364A1.492,1.492,0,1,0,106.1,78l.419-.367c4.805-4.207,7.974-6.627,12.382-3.509,3.241,2.293,4.954,5.216,5.089,8.686.172,4.422-2.382,9.382-6.667,12.945a13.976,13.976,0,0,1-11.436,2.876,15.068,15.068,0,0,1-10.405-6.678l-.531-.875c-2.389-3.938-4.709-7.761-7.266-10.367.236.124.475.254.722.389a14.017,14.017,0,0,0,8.234,2.1,10.028,10.028,0,0,0,4.464-1.415,1.492,1.492,0,0,0-1.471-2.6,7.145,7.145,0,0,1-3.146,1.031,11.013,11.013,0,0,1-6.654-1.738c-2.443-1.331-4.969-2.708-10.234-.959a.319.319,0,0,0-.06.028,6.332,6.332,0,0,0-4.623,5.59,246.016,246.016,0,0,1-27.769-1.763,364.1,364.1,0,0,1-1.094-52.207,1.492,1.492,0,1,0-2.979-.153,367.09,367.09,0,0,0,1.167,53.3,19.626,19.626,0,0,0-2.376,6.035,4.125,4.125,0,0,0,1.958,4.53,4.059,4.059,0,0,0,4.835-.463,3.418,3.418,0,0,1,2.511-1.012c1.5,0,2.2.688,3.171,1.639a6.794,6.794,0,0,0,10.517,0c.971-.952,1.673-1.64,3.171-1.64s2.2.687,3.169,1.639a6.937,6.937,0,0,0,5.26,2.493,6.288,6.288,0,0,0,3.112-.768c.075.057.146.116.223.172a18.933,18.933,0,0,0,11.06,3.218,22.428,22.428,0,0,0,5.541-.677,19.226,19.226,0,0,0,12.146,4.352,16.523,16.523,0,0,0,10.688-3.789c5.059-4.206,7.952-9.946,7.741-15.355ZM46.427,11.05a17.68,17.68,0,0,1-1.653-4.52,1.171,1.171,0,0,1,.566-1.3,1.09,1.09,0,0,1,1.335.124,6.386,6.386,0,0,0,4.491,1.765,6.934,6.934,0,0,0,5.258-2.493c.971-.952,1.672-1.64,3.169-1.64s2.2.688,3.17,1.64a6.793,6.793,0,0,0,10.518,0c.971-.952,1.672-1.64,3.17-1.64s2.2.688,3.17,1.64a6.793,6.793,0,0,0,10.518,0c.971-.952,1.672-1.64,3.17-1.64s2.2.688,3.171,1.64a6.936,6.936,0,0,0,5.259,2.493,6.386,6.386,0,0,0,4.492-1.765,1.09,1.09,0,0,1,1.336-.124,1.171,1.171,0,0,1,.567,1.3,17.694,17.694,0,0,1-1.653,4.52A248.022,248.022,0,0,0,46.427,11.05ZM73.285,90.915a6.794,6.794,0,0,0-10.517,0c-.97.951-1.672,1.639-3.169,1.639s-2.2-.688-3.171-1.639a6.937,6.937,0,0,0-5.26-2.492,6.385,6.385,0,0,0-4.492,1.765,1.09,1.09,0,0,1-1.336.125,1.171,1.171,0,0,1-.565-1.3A17.388,17.388,0,0,1,46.531,84.3a248.98,248.98,0,0,0,28.315,1.817,11.974,11.974,0,0,0,2.4,6.361,3.952,3.952,0,0,1-.791.075c-1.5,0-2.2-.688-3.172-1.64Zm8.263,1.616a8.984,8.984,0,0,1-3.778-7.56c-.036-3.453,1.484-4.286,2.686-4.584C84.626,79.82,88.4,86.038,92.4,92.621l.532.877a15.271,15.271,0,0,0,1,1.448c-4.026.619-9.007.043-12.382-2.416Z" transform="translate(0 0)"/><path d="M422.016,445.083l-.074.044a1.492,1.492,0,1,0,1.509,2.573l.074-.044a1.492,1.492,0,0,0-1.509-2.573Z" transform="translate(-303.973 -356.388)"/><path d="M433.359,430.535a1.485,1.485,0,0,0,.753-.205l.074-.044a1.492,1.492,0,1,0-1.509-2.573l-.074.044a1.492,1.492,0,0,0,.756,2.779Z" transform="translate(-312.515 -342.473)"/><path d="M411.683,427.449l-.074.044a1.492,1.492,0,1,0,1.509,2.573l.074-.044a1.492,1.492,0,0,0-1.509-2.573Z" transform="translate(-295.696 -342.261)"/></g></g></svg>