<svg xmlns="http://www.w3.org/2000/svg" width="118.5" height="118.5" viewBox="0 0 118.5 118.5"><defs><style>.a{fill:#ff8400;}.b{fill:#4f99d5;}</style></defs><g transform="translate(-751.75 -1229.25)"><circle class="a" cx="14" cy="14" r="14" transform="translate(767 1289)"/><path class="b" d="M764.492,1249.628h33.831v10.839H765.477Z"/><path class="b" d="M802.594,1269.665h39.579l-5.584,44.671s-4.927.328-5.748,2.956-1.314,28.9-1.314,28.9H809.655l-.985-21.678Z"/><path class="a" d="M829.232,1323.056h39.924s0-7.259-3.2-7.9-35.227.854-35.227.854Z"/><g transform="translate(747 1224.5)"><path d="M12.5,55.439a1.751,1.751,0,0,0-1.75,1.75v7.75a1.75,1.75,0,0,0,3.5,0v-7.75A1.751,1.751,0,0,0,12.5,55.439Z"/><path d="M34.463,62.1a16.75,16.75,0,1,0,16.75,16.75A16.75,16.75,0,0,0,34.463,62.1Zm0,30a13.25,13.25,0,1,1,13.25-13.25A13.25,13.25,0,0,1,34.463,92.1Z"/><path d="M115.5,88.75H92.06l.186-1.808v-.023l2.4-23.3a.1.1,0,0,1,0-.017L96.6,44.679a1.751,1.751,0,0,0-1.74-1.929H63.054a13.7,13.7,0,0,0-10-8.051V25.75A1.751,1.751,0,0,0,51.3,24H39.21V16.563h9.919a1.75,1.75,0,0,0,1.75-1.75A8.41,8.41,0,0,0,43.35,6.435L27.674,4.76A1.75,1.75,0,0,0,25.738,6.5v8.313a1.751,1.751,0,0,0,1.75,1.75H29.71V24H17.63a1.751,1.751,0,0,0-1.75,1.75V34.7A13.769,13.769,0,0,0,4.75,48.19V115.5a7.759,7.759,0,0,0,7.75,7.75H56.43a7.707,7.707,0,0,0,4.312-1.314,1.745,1.745,0,0,0,1.688,1.314H121.5a1.751,1.751,0,0,0,1.75-1.75v-25a7.759,7.759,0,0,0-7.75-7.75Zm4.25,7.75v.25H84.25V96.5a4.255,4.255,0,0,1,4.25-4.25h27A4.255,4.255,0,0,1,119.75,96.5ZM88.5,88.75a7.759,7.759,0,0,0-7.75,7.75v10.18H64.009L62.131,88.49H88.568l-.027.26ZM59.729,65.19h31.24l-2.04,19.8H61.77l-.306-2.962Zm31.6-3.5H59.364L57.771,46.25H92.92ZM29.238,8.447l13.74,1.468a4.919,4.919,0,0,1,4.083,3.148H29.236Zm3.972,8.116h2.5V24h-2.5ZM49.55,27.5v6.94H19.38V27.5Zm6.88,92.25H12.5a4.255,4.255,0,0,1-4.25-4.25V48.19A10.261,10.261,0,0,1,18.5,37.94H50.43a10.219,10.219,0,0,1,8.688,4.81H55.83a1.75,1.75,0,0,0-1.741,1.93l3.969,38.443.391,3.8v.01L60.68,108.52v6.98a4.255,4.255,0,0,1-4.25,4.25Zm7.75-4.25v-5.32H80.75v9.57H64.18Zm55.57,4.25H84.25v-19.5h35.5Z"/><path d="M102,102.583c-3.4,0-6.167,3.328-6.167,7.417s2.767,7.417,6.167,7.417,6.167-3.328,6.167-7.417S105.4,102.583,102,102.583Zm0,11.334c-1.445,0-2.667-1.794-2.667-3.917s1.222-3.917,2.667-3.917,2.667,1.794,2.667,3.917S103.445,113.917,102,113.917Z"/></g></g></svg>