<svg xmlns="http://www.w3.org/2000/svg" width="115" height="115" viewBox="0 0 115 115"><defs><style>.a{fill:#ff8400;}.b{fill:#4f99d5;}</style></defs><g transform="translate(-186 -1231)"><path class="a" d="M195.395,1269.788c-.278-.555,9.159-7.494,9.714-1.943s.555,11.657,3.608,16.93,12.49,16.931,12.49,16.931,11.38,2.5,15.265,2.22,5,.278,5.551,4.441,6.384,21.649,3.608,23.869-5,1.11-14.71,1.943-30.253,1.665-33.583,0-2.5-7.494-1.943-11.657S195.672,1270.343,195.395,1269.788Z"/><path class="a" d="M266.218,1338.971s-3.12-4.106,0-7.062,6.077-4.6,8.212-3.285c2.3-2.464,1.478-5.255,5.42-4.6s5.255,2.463,5.42,3.777c.821.657,4.434-2.464,5.42-1.642s8.212,5.912,5.748,8.869-3.449,3.285-7.39,3.285S266.218,1338.971,266.218,1338.971Z"/><path class="b" d="M245.311,1286.976h43.127s3.416-5.764,1.708-9.607-10.461-10.888-10.461-10.888-4.056-2.776-12.6-2.989-18.147,7.045-19,7.686-3.63,3.2-3.843,4.7S245.311,1286.976,245.311,1286.976Z"/><g transform="translate(186 1231)"><path d="M129.944,185.821c3.775,6.911,14.464.9,10.452-5.933a100.378,100.378,0,0,0-13.9-18.421,6.069,6.069,0,0,0-10.153,2.554,5.99,5.99,0,0,0,1.579,5.969,66.561,66.561,0,0,1,12.024,15.83Zm-10.365-20.868a2.672,2.672,0,0,1,4.478-1.161,97,97,0,0,1,13.434,17.8c1.772,3.016-2.926,5.659-4.59,2.611a69.927,69.927,0,0,0-12.632-16.631A2.628,2.628,0,0,1,119.578,164.953Z" transform="translate(-90.025 -123.784)"/><path d="M40.285,149.2a7.319,7.319,0,0,0-7.31,7.31v57.832a7.319,7.319,0,0,0,7.31,7.31H80.918a7.384,7.384,0,0,0,7.272-8.065,116.756,116.756,0,0,0-4.912-21.969,7.284,7.284,0,0,0-6.957-5.064H65.949a3.944,3.944,0,0,1-3.233-1.687L48.3,164.2a3.92,3.92,0,0,1-.708-2.254v-5.433a7.318,7.318,0,0,0-7.31-7.31ZM59.953,186.8a7.314,7.314,0,0,0,6,3.129H76.322a3.924,3.924,0,0,1,3.749,2.727,113.274,113.274,0,0,1,4.769,21.293,3.981,3.981,0,0,1-3.922,4.339H40.285a3.945,3.945,0,0,1-3.941-3.941V156.512c0-5.073,7.883-5.082,7.883,0v5.433a7.274,7.274,0,0,0,1.314,4.181Z" transform="translate(-25.568 -115.69)"/><path d="M113.315,105.566h-1.535a8.711,8.711,0,0,0,.663-3.34,8.476,8.476,0,0,0-7.327-8.386V77.49a1.686,1.686,0,0,0-3.369,0V81.2H68.057c-.041,0-.082,0-.122.006a107.472,107.472,0,0,0-8.188-22.2v-.944h42v10a1.686,1.686,0,0,0,3.369,0v-20.4A11.473,11.473,0,0,0,99.9,38.021L89.886,31.474V21.3a5.584,5.584,0,0,0-5.578-5.578H77.187A5.584,5.584,0,0,0,71.609,21.3V31.474L61.59,38.021a11.473,11.473,0,0,0-5.213,9.634v5.133a106.975,106.975,0,0,0-20.7-25.434,13.84,13.84,0,0,0-4.631-2.76V17.468a1.684,1.684,0,0,0-1.685-1.685H27.732V5.192A5.2,5.2,0,0,0,22.54,0H12.4A5.2,5.2,0,0,0,7.206,5.192V15.784H5.573a1.684,1.684,0,0,0-1.685,1.685v7.47A8.021,8.021,0,0,0,0,31.809V42.451a1.686,1.686,0,0,0,3.369,0V31.809a4.655,4.655,0,0,1,4.649-4.649H26.4a10.467,10.467,0,0,1,7.019,2.7,103.926,103.926,0,0,1,34.288,77.072c.069,2.357-1.091,4.7-3.795,4.7H7.164a3.8,3.8,0,0,1-3.795-3.795V51.885a1.686,1.686,0,0,0-3.369,0v55.952A7.172,7.172,0,0,0,7.164,115H80.635a1.686,1.686,0,0,0,0-3.369H76.592v-2.7h35.039v2.7H90.518a1.686,1.686,0,0,0,0,3.369h22.8A1.684,1.684,0,0,0,115,113.315v-6.064A1.684,1.684,0,0,0,113.315,105.566ZM10.575,5.192A1.825,1.825,0,0,1,12.4,3.369H22.54a1.824,1.824,0,0,1,1.822,1.823V15.555H10.575ZM8.019,23.79H7.258V19.153H27.68V23.79H8.019Zm101.057,78.436a5.253,5.253,0,0,1-1.1,3.228H80.031a5.729,5.729,0,0,1,8.6-5.815,1.684,1.684,0,0,0,2.55-1.388,3.5,3.5,0,0,1,6.867-.81,1.684,1.684,0,0,0,2.7.852,5.1,5.1,0,0,1,8.336,3.933ZM74.978,21.3a2.211,2.211,0,0,1,2.209-2.209h7.121A2.211,2.211,0,0,1,86.516,21.3v9.471H74.978ZM63.433,40.841l10.254-6.7H87.807l10.254,6.7a8.114,8.114,0,0,1,3.687,6.814v7.037h-42V47.655A8.115,8.115,0,0,1,63.433,40.841Zm11.474,64.725a1.684,1.684,0,0,0-1.685,1.685v4.38H69.99a7.119,7.119,0,0,0,1.092-3.795v-.908a106.853,106.853,0,0,0-2.368-22.363h33.035v9.5a8.5,8.5,0,0,0-1.364.5,6.87,6.87,0,0,0-12.1,1.273,9.1,9.1,0,0,0-11.69,8.72,9.218,9.218,0,0,0,.058,1.011Z"/></g></g></svg>