<svg xmlns="http://www.w3.org/2000/svg" width="104" height="104" viewBox="0 0 104 104"><defs><style>.a{fill:#4f99d5;}.b{fill:#ff8400;}</style></defs><g transform="translate(-752 -1451)"><rect class="a" width="31" height="79" transform="translate(823 1474)"/><rect class="b" width="14" height="18" transform="translate(764 1452)"/><g transform="translate(752 1451)"><path d="M102.267,96h-31.2a1.733,1.733,0,0,0-1.733,1.733V137.6H31.2v-5.2a1.733,1.733,0,0,0-1.733-1.733h-5.2v3.467h3.467V137.6H20.8v-6.933H17.333V137.6H10.4v-3.467h3.467v-3.467h-5.2A1.733,1.733,0,0,0,6.933,132.4v5.2h-5.2A1.733,1.733,0,0,0,0,139.333v38.133A1.733,1.733,0,0,0,1.733,179.2H102.267A1.733,1.733,0,0,0,104,177.467V97.733A1.733,1.733,0,0,0,102.267,96ZM72.8,99.467h27.733v20.8H72.8ZM69.333,148h-31.2v-6.933h31.2ZM3.467,141.067h31.2V148H3.467Zm0,10.4h31.2v24.267H3.467Zm34.667,0H52v24.267H38.133Zm17.333,0H69.333v24.267H55.467ZM72.8,175.733v-52h27.733v52Zm0,0" transform="translate(0 -75.2)"/><path d="M352,144h3.467v6.933H352Zm0,0" transform="translate(-275.733 -112.8)"/><path d="M352,256h3.467v6.933H352Zm0,0" transform="translate(-275.733 -200.533)"/><path d="M35.467,313.733A1.733,1.733,0,1,1,33.733,312,1.733,1.733,0,0,1,35.467,313.733Zm0,0" transform="translate(-25.067 -244.4)"/><path d="M67.467,313.733A1.733,1.733,0,1,1,65.733,312,1.733,1.733,0,0,1,67.467,313.733Zm0,0" transform="translate(-50.133 -244.4)"/><path d="M99.467,313.733A1.733,1.733,0,1,1,97.733,312,1.733,1.733,0,0,1,99.467,313.733Zm0,0" transform="translate(-75.2 -244.4)"/><path d="M131.467,313.733A1.733,1.733,0,1,1,129.733,312,1.733,1.733,0,0,1,131.467,313.733Zm0,0" transform="translate(-100.267 -244.4)"/><path d="M1.733,32.933H36.4A1.733,1.733,0,0,0,38.133,31.2V26a1.734,1.734,0,0,0-.508-1.226l-6.933-6.933a1.734,1.734,0,0,0-1.226-.508H27.733V1.733A1.733,1.733,0,0,0,26,0H12.133A1.733,1.733,0,0,0,10.4,1.733v15.6H8.667a1.734,1.734,0,0,0-1.226.508L.508,24.775A1.734,1.734,0,0,0,0,26v5.2A1.733,1.733,0,0,0,1.733,32.933ZM13.867,3.467h10.4V17.333h-10.4ZM3.467,26.718,9.384,20.8H28.749l5.918,5.918v2.749H3.467Zm0,0" transform="translate(0 0)"/><path d="M54.533,368h-20.8A1.733,1.733,0,0,0,32,369.733V383.6a1.733,1.733,0,0,0,1.733,1.733h20.8a1.733,1.733,0,0,0,1.733-1.733V369.733A1.733,1.733,0,0,0,54.533,368ZM52.8,381.867H35.467v-10.4H52.8Zm0,0" transform="translate(-25.067 -288.267)"/><path d="M232,312h6.933v3.467H232Zm0,0" transform="translate(-181.733 -244.4)"/><path d="M208,392h3.467v6.933H208Zm0,0" transform="translate(-162.933 -307.067)"/><path d="M272,392h3.467v6.933H272Zm0,0" transform="translate(-213.067 -307.067)"/><path d="M185.733,43.333h10.4a1.733,1.733,0,0,0,1.733-1.733V39.866a6.933,6.933,0,0,0-5.2-6.687V0H189.2v33.18a6.933,6.933,0,0,0-5.2,6.687V41.6A1.733,1.733,0,0,0,185.733,43.333Zm5.2-6.933a3.467,3.467,0,0,1,3.467,3.467h-6.933A3.467,3.467,0,0,1,190.933,36.4Zm0,0" transform="translate(-144.133)"/><path d="M241.733,29.467h10.4a1.733,1.733,0,0,0,1.733-1.733V26a6.933,6.933,0,0,0-5.2-6.687V0H245.2V19.313A6.933,6.933,0,0,0,240,26v1.733A1.733,1.733,0,0,0,241.733,29.467Zm5.2-6.933A3.467,3.467,0,0,1,250.4,26h-6.933A3.467,3.467,0,0,1,246.933,22.533Zm0,0" transform="translate(-188 0)"/></g></g></svg>