<svg xmlns="http://www.w3.org/2000/svg" width="123.69" height="110.82" viewBox="0 0 123.69 110.82"><defs><style>.a{fill:#ff8400;}.b{fill:#4f99d5;}</style></defs><g transform="translate(-1332.5 -1441.18)"><path class="a" d="M1373.315,1327.519c6.661-3.053,53.567-20.816,56.62-20.816s5.273,3.886,5.551,7.494,4.718,18.041,2.776,20.261,2.22,5.828-14.155,5-50.792,0-50.792,0S1366.654,1330.572,1373.315,1327.519Z" transform="translate(-7.656 211)"/><path class="b" d="M1349.532,1252.176c1.068-.213,5.978-2.348,10.461-1.921s11.956-2.989,14.518,2.775,2.562,13.878,2.562,13.878-2.775,4.7-2.562,6.4-4.484,3.63-4.484,5.978v5.978s-4.484,3.63-4.484,5.551-2.776.854-3.2,3.843a61.961,61.961,0,0,0,0,9.181s-7.045-.214-8.113,1.281a8.218,8.218,0,0,0-1.281,3.416l-4.911,2.135v-54.016Z" transform="translate(-7.656 211)"/><g transform="translate(1332.5 1414.543)"><g transform="translate(38.025 66.412)"><path d="M167.2,193.113a5.639,5.639,0,0,0-9.8,3.708,1.812,1.812,0,0,0,1.781,1.842h.031a1.812,1.812,0,0,0,1.811-1.781,2.012,2.012,0,0,1,2.049-1.979,1.989,1.989,0,0,1,1.451.653,1.812,1.812,0,0,0,2.676-2.444Z" transform="translate(-157.402 -191.28)"/></g><g transform="translate(47.735 71.002)"><path d="M207.323,213.43a5.176,5.176,0,0,0-9.616.23,1.812,1.812,0,1,0,3.4,1.26,1.558,1.558,0,0,1,2-.917,1.53,1.53,0,0,1,.887.845,1.812,1.812,0,0,0,3.335-1.418Z" transform="translate(-197.594 -210.283)"/></g><g transform="translate(64.343 57.573)"><path d="M271.138,155.223a1.811,1.811,0,0,0-2.562,0l-1.708,1.711a1.812,1.812,0,0,0,2.565,2.56l1.708-1.711A1.812,1.812,0,0,0,271.138,155.223Z" transform="translate(-266.339 -154.693)"/></g><g transform="translate(53.643 81.493)"><g transform="translate(0 0)"><path d="M226.276,253.709h-2.415a1.812,1.812,0,0,0,0,3.624h2.415a1.812,1.812,0,0,0,0-3.624Z" transform="translate(-222.049 -253.709)"/></g></g><g transform="translate(72.158 81.493)"><g transform="translate(0 0)"><path d="M302.919,253.709H300.5a1.812,1.812,0,0,0,0,3.624h2.415a1.812,1.812,0,0,0,0-3.624Z" transform="translate(-298.692 -253.709)"/></g></g><g transform="translate(0 26.637)"><g transform="translate(0 0)"><path d="M123.632,114.163l-.472-2.547a3.437,3.437,0,0,0-4-2.751l-9.605,1.765,4.35-2.908a3.423,3.423,0,0,0,1.082-4.535l-1.316-2.331a3.426,3.426,0,0,0-3.441-1.716,45.832,45.832,0,0,0,.734-8.183,3.03,3.03,0,0,0-1.8-2.766,13.894,13.894,0,0,0,.11-10.513,2.2,2.2,0,0,0-1.229-1.233,13.784,13.784,0,0,0-5.122-.984q-.337,0-.672.016a9.552,9.552,0,0,0-11.508-8.889,14.929,14.929,0,0,0-.845-7.974,2.227,2.227,0,0,0-1.253-1.263,14.892,14.892,0,0,0-13.46,1.234,17.92,17.92,0,0,0-4.266-6.826,3.076,3.076,0,0,0-4.355,0l-8.773,8.793a9.107,9.107,0,0,0-6.078-2.314,9.163,9.163,0,0,0-6.541,2.746,9.107,9.107,0,0,0-6.756-.482V53.727a8.554,8.554,0,0,0-8.389-8.549V41.336a3.022,3.022,0,0,0,2.5-2.972V29.657a3.023,3.023,0,0,0-3.02-3.02H14.774a3.023,3.023,0,0,0-3.02,3.02v8.706a3.022,3.022,0,0,0,2.5,2.972v3.842a8.554,8.554,0,0,0-8.389,8.549v52.881A17.307,17.307,0,0,0,0,119.474c0,9.916,8.7,17.983,19.4,17.983l72.52-.021a8.293,8.293,0,0,0,8.207-9.59l14.484,2.6a3.461,3.461,0,0,0,.61.054,3.435,3.435,0,0,0,3.4-2.926l.392-2.633a3.425,3.425,0,0,0-2.63-3.85l-5.105-1.171,9.6-1.763a3.431,3.431,0,0,0,2.758-4ZM102.919,79.084a10.161,10.161,0,0,1,3.194.513,10.262,10.262,0,0,1-.866,8.332h-4.881l1.557-1.561a1.812,1.812,0,0,0-2.565-2.56l-.824.826a8.4,8.4,0,0,0-1.947-3.345A10.131,10.131,0,0,1,102.919,79.084ZM92.7,70.006a5.95,5.95,0,0,1,5.934,5.952c0,.061,0,.121,0,.181a13.767,13.767,0,0,0-5.172,3.068c-.239-.091-.481-.175-.73-.244a8.4,8.4,0,0,0-5.008-6.23A5.925,5.925,0,0,1,92.7,70.006ZM83.123,59.913a11.224,11.224,0,0,1,3.605.593,11.351,11.351,0,0,1-.448,8.368,9.623,9.623,0,0,0-2.321,3.218,8.553,8.553,0,0,0-.967.11,8.461,8.461,0,0,0-3.852,1.757,9.589,9.589,0,0,0-1.37-1.9l4.155-4.164a1.812,1.812,0,0,0-2.566-2.559l-4.541,4.552a9.47,9.47,0,0,0-2.78-.825,11.308,11.308,0,0,1,11.084-9.145ZM69.24,87.929H67.669a1.81,1.81,0,0,0-3.371,0H62.451A1.811,1.811,0,0,0,59.625,85.7l-1.708,1.711a1.8,1.8,0,0,0-.358.515H53.871a14.331,14.331,0,0,1-2.324-7.312H80.292a14.331,14.331,0,0,1-2.324,7.312H74.131a1.8,1.8,0,0,0-.358-.515L72.065,85.7a1.811,1.811,0,0,0-2.826,2.226ZM65.026,76.993a5.929,5.929,0,0,1,11.456,0H65.026Zm3.705-22.279a14.328,14.328,0,0,1,3.422,6.4,14.923,14.923,0,0,0-2.3,3.3,1.8,1.8,0,0,0-.944-.267H66.495a1.812,1.812,0,0,0,0,3.624h2.118a15,15,0,0,0-.279,1.517,9.475,9.475,0,0,0-2.05.8,9.146,9.146,0,0,0-5.577-4.26l0-.015a9.173,9.173,0,0,0-.728-2.321ZM35.978,71.063a5.468,5.468,0,0,1-.24-.908,5.53,5.53,0,0,1,4.5-6.381,5.59,5.59,0,0,1,.955-.083,5.475,5.475,0,0,1,3.3,1.1,1.812,1.812,0,0,0,2.595-.45,5.486,5.486,0,0,1,3.664-2.4,5.59,5.59,0,0,1,.958-.083,5.5,5.5,0,0,1,5.424,4.567,5.553,5.553,0,0,1,.08.939,1.812,1.812,0,0,0,1.653,1.8,5.514,5.514,0,0,1,4.549,3.249,9.553,9.553,0,0,0-2.094,4.575H50.991a3.08,3.08,0,0,0-2.847,1.915,13.826,13.826,0,0,0-12.883-1.4,2.2,2.2,0,0,0-1.227,1.231,13.881,13.881,0,0,0-.845,3.221,5.513,5.513,0,0,1,1.843-8.643A1.812,1.812,0,0,0,35.978,71.063Zm5.4,16.37.494.5H37.522a10.266,10.266,0,0,1-.332-7.266,10.193,10.193,0,0,1,11.147,3.3,17.9,17.9,0,0,0,1.387,3.968H46.992l-3.048-3.055a1.812,1.812,0,0,0-2.565,2.56Zm-7.716.5H27.2A5.959,5.959,0,0,1,30.013,83.8a9.109,9.109,0,0,0,3.3,2.739A14.013,14.013,0,0,0,33.663,87.929ZM15.378,30.261H28.9v7.5H15.378ZM26.4,41.383v3.791H17.882V41.383ZM9.493,61.074H21.259a1.812,1.812,0,0,0,0-3.624H9.493V53.726A4.927,4.927,0,0,1,14.407,48.8H29.875a4.927,4.927,0,0,1,4.914,4.929v3.724H31.406a1.812,1.812,0,0,0,0,3.624h3.383v1.608a9.132,9.132,0,0,0-2.622,8.09l0,.019a9.156,9.156,0,0,0-3.839,9.1c.036.208.081.412.13.614a9.608,9.608,0,0,0-2.415,1.9H9.493Zm0,24.952h14.45a9.505,9.505,0,0,0-.394,1.9h-.305a3.029,3.029,0,0,0-3.025,3.027A45.85,45.85,0,0,0,21,99.42c-.521-.042-1.055-.064-1.6-.064a16.51,16.51,0,0,0-5.878.979c-2.446.966-3.122,2.337-3.27,3.286-.259.129-.514.265-.766.4v-18Zm22.943,22.258a6.86,6.86,0,0,1,1.283,1.286h-.067A11.258,11.258,0,0,1,28.688,108a13.057,13.057,0,0,1-2.079-1.412,1.812,1.812,0,0,0-2.343,0A12.983,12.983,0,0,1,22.19,108a11.257,11.257,0,0,1-4.964,1.574h-.068a6.851,6.851,0,0,1,1.283-1.286,1.812,1.812,0,0,0-.921-3.214,8.656,8.656,0,0,1-3.41-.985,10.32,10.32,0,0,1,5.3-1.1,11.293,11.293,0,0,1,5.144,1.006,1.813,1.813,0,0,0,1.774,0,11.3,11.3,0,0,1,5.145-1.006,10.319,10.319,0,0,1,5.3,1.1,8.651,8.651,0,0,1-3.41.985,1.812,1.812,0,0,0-.922,3.214Zm-3.624,22.053.062.336a8.252,8.252,0,0,0,1.3,3.16H19.4c-8.7,0-15.777-6.442-15.777-14.36A14.233,14.233,0,0,1,11.8,106.9a7.785,7.785,0,0,0,2.084,1.068,4.292,4.292,0,0,0-.61,1.791,2.951,2.951,0,0,0,.72,2.234,4.113,4.113,0,0,0,3.233,1.206,14.964,14.964,0,0,0,6.719-2.027q.792-.438,1.494-.923.7.483,1.494.923a14.97,14.97,0,0,0,6.719,2.027h0a4.112,4.112,0,0,0,3.232-1.205,2.95,2.95,0,0,0,.721-2.234,4.292,4.292,0,0,0-.61-1.791,7.8,7.8,0,0,0,2.084-1.068,14.659,14.659,0,0,1,7.765,9.322l-12.815,4.868A8.285,8.285,0,0,0,28.812,130.337Zm66.714,1.791a4.688,4.688,0,0,1-3.607,1.684h-1.9L88.829,127.4a1.812,1.812,0,0,0-3.563.66l1.066,5.757-6.234,0-.8-4.338a1.812,1.812,0,0,0-3.563.66l.681,3.68-14.5.006-1.091-5.892a1.812,1.812,0,0,0-3.563.66l.969,5.233-21.173.008h0a4.685,4.685,0,0,1-4.615-3.821l-.062-.336a4.662,4.662,0,0,1,2.94-5.2l7.121-2.705.531,2.863a1.812,1.812,0,0,0,1.779,1.482,1.837,1.837,0,0,0,.332-.031,1.812,1.812,0,0,0,1.451-2.112l-.651-3.511,10.57-4.016a1.812,1.812,0,0,0-1.287-3.388l-4.919,1.869a18.361,18.361,0,0,0-9.626-11.3c-.148-.949-.824-2.32-3.27-3.286a16.51,16.51,0,0,0-5.878-.979,18.381,18.381,0,0,0-4.219.47V98.731a1.81,1.81,0,0,0-2.931-1.423,42.327,42.327,0,0,1-.472-5.756H82.862a1.812,1.812,0,1,0,0-3.624h-.741a17.936,17.936,0,0,0,1.806-7.856,3.083,3.083,0,0,0-2.782-3.065,4.775,4.775,0,0,1,2.47-1.236,4.889,4.889,0,0,1,.835-.072,4.788,4.788,0,0,1,4.726,3.979,4.846,4.846,0,0,1,.07.819A1.812,1.812,0,0,0,90.9,82.3a4.8,4.8,0,0,1,4.308,3.96,4.736,4.736,0,0,1-.013,1.669H93.25a1.812,1.812,0,1,0,0,3.624h14.082a41.763,41.763,0,0,1-1.271,9.72l-9.819,5.8a8.317,8.317,0,0,0-10.952-5.457l-20.223,7.683a1.812,1.812,0,0,0,1.287,3.388l2.664-1.012.827,4.466a1.813,1.813,0,0,0,1.779,1.482,1.836,1.836,0,0,0,.332-.031,1.812,1.812,0,0,0,1.452-2.111l-.947-5.114L86.576,105a4.7,4.7,0,0,1,3.976.292,4.655,4.655,0,0,1,2.313,3.221L96.531,128.3A4.634,4.634,0,0,1,95.526,132.128Zm6.465-14.182a1.812,1.812,0,0,0-.078,3.548l13.49,3.094-.337,2.261-15.639-2.81-2.445-13.2L110.6,102.8l1.135,2.009-11.489,7.68a1.812,1.812,0,0,0,1.335,3.288l18.048-3.315.4,2.169Z" transform="translate(0 -26.637)"/></g></g></g></g></svg>