<svg xmlns="http://www.w3.org/2000/svg" width="83.742" height="110.756" viewBox="0 0 83.742 110.756"><defs><style>.a{fill:#ff8400;}.b{fill:#4f99d5;}</style></defs><g transform="translate(-188.129 -1445.622)"><path class="a" d="M191.657,1474.627c2.463,0,44.342-1.15,44.507,0s2.792,6.077,1.807,10.182,2.792,8.54-2.628,8.54-41.715,1.971-43.685,0S189.194,1474.627,191.657,1474.627Z"/><path class="b" d="M230.744,1510.1c-.821.657-2.792-.164-1.478,3.613a24.917,24.917,0,0,0,3.942,6.9,3.7,3.7,0,0,0-2.463,3.777c.164,2.956,6.733,11.5,8.7,12.482s7.39-.329,7.719-1.807,2.792.329,4.106,1.807,5.255,4.927,7.062,0,2.3-5.42,0-7.719-23.813-20.857-23.813-20.857Z"/><g transform="translate(125.689 1445.622)"><path d="M146.176,59.583a9.339,9.339,0,0,0-7.161-8.755,1.58,1.58,0,0,0-.732,3.074,6.137,6.137,0,0,1,2.59,1.325,6.192,6.192,0,0,1-3.568,10.863,7.379,7.379,0,0,0-5.44,3.02L126.382,76.7l-6.329-6.329,7.585-5.484a7.319,7.319,0,0,0,3.018-5.415,6.169,6.169,0,0,1,2.116-4.226,1.58,1.58,0,1,0-2.078-2.381,9.31,9.31,0,0,0-3.19,6.379,4.167,4.167,0,0,1-1.718,3.083l-8,5.781-4.514-4.513a6.715,6.715,0,0,0-1.784-1.279l1.925-5.646a9.068,9.068,0,0,0-1.5-8.572,5.78,5.78,0,0,0,1.977-4.353V32.681a5.8,5.8,0,0,0-5.793-5.793h-5.664a9.205,9.205,0,0,0-4.459-8.736l-2.9-1.68a3.661,3.661,0,0,1-1.236-5.11l.761-1.187A6.784,6.784,0,0,0,95.68,6.506V3.687A3.691,3.691,0,0,0,91.993,0H84.347a3.691,3.691,0,0,0-3.687,3.687V6.506a6.785,6.785,0,0,0,1.075,3.669l.761,1.187a3.661,3.661,0,0,1-1.236,5.11l-2.9,1.68a9.2,9.2,0,0,0-4.459,8.736H68.242a5.8,5.8,0,0,0-5.793,5.793v11.06a5.78,5.78,0,0,0,1.98,4.355,9.032,9.032,0,0,0-1.5,8.569l4.268,12.519a5.911,5.911,0,0,1,0,3.795L63.037,85.164a11.139,11.139,0,0,0-.6,3.6,9.28,9.28,0,0,0,9.27,9.27H86.458a16.708,16.708,0,0,0,21.907,11.724,1.58,1.58,0,1,0-1.077-2.971A13.517,13.517,0,0,1,93.1,84.533a13.4,13.4,0,0,1,10.3-3.928,6.826,6.826,0,0,0,1.22,3.319,10.494,10.494,0,0,0-1.966-.186,10.357,10.357,0,1,0,10.166,8.387,6.78,6.78,0,0,0,3.32,1.223,13.415,13.415,0,0,1-3.769,10.14,1.58,1.58,0,1,0,2.271,2.2,16.558,16.558,0,0,0,4.64-12.783,7.054,7.054,0,0,0,2.56-1.759l1.821,1.821h0a6.712,6.712,0,1,0,9.493-9.492l-4.514-4.514,5.781-8a4.224,4.224,0,0,1,3.119-1.721,9.351,9.351,0,0,0,8.631-9.658ZM77.066,25.895a5.811,5.811,0,0,1,2.885-5.01l2.9-1.68a6.8,6.8,0,0,0,2.31-9.548c-.593-.91-1.4-2.007-1.336-3.15V3.687a.527.527,0,0,1,.527-.527h7.646a.527.527,0,0,1,.527.527V6.506c.069,1.141-.743,2.242-1.336,3.15a6.8,6.8,0,0,0,2.31,9.548l2.9,1.68a6.124,6.124,0,0,1,2.885,6H77.066Zm-8.825,4.152H108.1a2.636,2.636,0,0,1,2.633,2.633v3.811H80.187a1.58,1.58,0,0,0,0,3.16h30.546V43.74a2.636,2.636,0,0,1-2.633,2.633H68.242a2.636,2.636,0,0,1-2.633-2.633V39.651h7.178a1.58,1.58,0,0,0,0-3.16H65.608V32.68a2.636,2.636,0,0,1,2.633-2.633ZM90.865,82.3a16.637,16.637,0,0,0-4.858,12.578H77.873V90.139h3.12a1.58,1.58,0,1,0,0-3.16h-3.12V81.835h6.6a1.58,1.58,0,1,0,0-3.16h-6.6V73.532h3.12a1.58,1.58,0,1,0,0-3.16h-3.12V65.228h6.6a1.58,1.58,0,1,0,0-3.16h-6.6V56.924h3.12a1.58,1.58,0,1,0,0-3.16h-4.7a1.58,1.58,0,0,0-1.58,1.58V94.877h-3a6.117,6.117,0,0,1-6.11-6.11,7.988,7.988,0,0,1,.428-2.583L70.183,74a9.085,9.085,0,0,0,0-5.834L65.915,55.645a5.877,5.877,0,0,1,1.525-6.168,5.8,5.8,0,0,0,.8.057H108.1a5.78,5.78,0,0,0,.8-.057,5.888,5.888,0,0,1,1.527,6.168l-2.04,5.982a6.71,6.71,0,0,0-4.6,11.455l1.821,1.821a7.036,7.036,0,0,0-1.755,2.559A16.533,16.533,0,0,0,90.865,82.3Zm6.7,6.7a7.193,7.193,0,0,1,12.055,3.289,6.071,6.071,0,0,1-4.992,2.586H95.508A7.186,7.186,0,0,1,97.568,89Zm5.089,12.283a7.187,7.187,0,0,1-6.02-3.248h7.993a9.244,9.244,0,0,0,4.712-1.282,7.184,7.184,0,0,1-6.685,4.53Zm16.725-12.148a3.7,3.7,0,0,1-5.221,0l-6.549-6.549a3.726,3.726,0,0,1,.228-5.449l11.77,11.77Zm11.541,1.593a3.569,3.569,0,0,1-5.023,0h0L106.019,70.848a3.528,3.528,0,0,1-1.041-2.512,3.575,3.575,0,0,1,6.064-2.512l19.882,19.882a3.556,3.556,0,0,1,0,5.023Z"/></g></g></svg>