<svg xmlns="http://www.w3.org/2000/svg" width="15.185" height="18.513" viewBox="0 0 15.185 18.513"><path d="M51.056,132.206c-2.755-.016-5.034-5.64-5.034-8.5,0-4.679,3.51-5.7,4.863-5.7a5.6,5.6,0,0,1,1.835.451,4.1,4.1,0,0,0,1.048.3,3.261,3.261,0,0,0,.752-.244,6.024,6.024,0,0,1,2.265-.548h.005a4.643,4.643,0,0,1,3.886,1.962l.283.426-.408.308a3.432,3.432,0,0,0-1.646,2.83,3.194,3.194,0,0,0,1.782,2.953c.255.154.52.312.52.658,0,.226-1.805,5.083-4.426,5.083a3.56,3.56,0,0,1-1.495-.363,3.031,3.031,0,0,0-1.331-.32,3.422,3.422,0,0,0-1.053.285,5.16,5.16,0,0,1-1.827.426Z" transform="translate(-46.022 -113.693)"/><path d="M258.632,0c.068,2.461-1.692,4.169-3.45,4.062A3.923,3.923,0,0,1,258.632,0Z" transform="translate(-247.593)"/></svg>