<svg xmlns="http://www.w3.org/2000/svg" width="15.204" height="10.453" viewBox="0 0 15.204 10.453"><defs><style>.a{fill:#ff8400;}</style></defs><g transform="translate(0 -80)"><path class="a" d="M15.2,82.465v-.8A1.663,1.663,0,0,0,13.541,80H1.663A1.663,1.663,0,0,0,0,81.663v.8a.148.148,0,0,0,.148.148H15.056A.148.148,0,0,0,15.2,82.465Z" transform="translate(0 0)"/><path class="a" d="M0,200.148v5.078a1.663,1.663,0,0,0,1.663,1.663H13.541a1.663,1.663,0,0,0,1.663-1.663v-5.078a.148.148,0,0,0-.148-.148H.148A.148.148,0,0,0,0,200.148Zm3.8,3.89a.475.475,0,0,1-.475.475H2.851a.475.475,0,0,1-.475-.475v-.475a.475.475,0,0,1,.475-.475h.475a.475.475,0,0,1,.475.475Z" transform="translate(0 -116.436)"/></g></svg>