<svg xmlns="http://www.w3.org/2000/svg" width="12.177" height="15.653" viewBox="0 0 12.177 15.653"><defs><style>.a{fill:#004c8a;}</style></defs><g transform="translate(0)"><path class="a" d="M126.41.945h2.616v.44h.945v-.5A.884.884,0,0,0,129.088,0h-2.74a.884.884,0,0,0-.883.883v.5h.945Zm0,0" transform="translate(-121.629 0)"/><path class="a" d="M49.776,167.75H40.907a.416.416,0,0,0-.415.45l.741,9.169a.985.985,0,0,0,.981.906h6.253a.985.985,0,0,0,.981-.906l.741-9.169a.416.416,0,0,0-.415-.45ZM43.054,177.3h-.03a.472.472,0,0,1-.471-.443l-.465-7.527a.472.472,0,1,1,.943-.058L43.5,176.8A.472.472,0,0,1,43.054,177.3Zm2.765-.471a.472.472,0,0,1-.945,0V169.3a.472.472,0,1,1,.945,0Zm2.775-7.5-.444,7.527a.472.472,0,0,1-.471.445H47.65a.472.472,0,0,1-.444-.5l.444-7.527a.472.472,0,0,1,.943.056Zm0,0" transform="translate(-39.252 -162.622)"/><path class="a" d="M12.157,77.552l-.31-.93a.6.6,0,0,0-.57-.411H.9a.6.6,0,0,0-.57.411l-.31.93a.39.39,0,0,0,.37.513h11.4a.385.385,0,0,0,.206-.06.389.389,0,0,0,.163-.453Zm0,0" transform="translate(0 -73.881)"/></g></svg>