<svg xmlns="http://www.w3.org/2000/svg" width="19" height="18" viewBox="0 0 19 18"><defs><style>.a{fill:#fbbb00;}.b{fill:#518ef8;}.c{fill:#28b446;}.d{fill:#f14336;}.e{fill:none;}</style></defs><g transform="translate(0.491 -0.256)"><g transform="translate(2.314 2.893)"><path class="a" d="M2.992,9.238l-.47,1.754L.8,11.029a6.761,6.761,0,0,1-.05-6.3h0l1.529.28.67,1.52a4.028,4.028,0,0,0,.038,2.712Z" transform="translate(0 -1.08)"/><path class="b" d="M15.426,7.115a6.747,6.747,0,0,1-2.406,6.524h0l-1.926-.1-.273-1.7a4.023,4.023,0,0,0,1.731-2.054H8.942V7.115h6.483Z" transform="translate(-2.044 -1.627)"/><path class="c" d="M11.213,14.43h0A6.752,6.752,0,0,1,1.043,12.366l2.187-1.79a4.014,4.014,0,0,0,5.785,2.055Z" transform="translate(-0.238 -2.418)"/><path class="d" d="M11.281,1.554,9.095,3.344a4.014,4.014,0,0,0-5.917,2.1l-2.2-1.8h0a6.751,6.751,0,0,1,10.3-2.092Z" transform="translate(-0.224)"/></g><rect class="e" width="19" height="18" transform="translate(-0.491 0.256)"/></g></svg>