<svg xmlns="http://www.w3.org/2000/svg" width="67" height="58" viewBox="0 0 67 58"><defs><style>.a{fill:#004c8a;stroke:#fff;}.b{fill:#fff;}.c{stroke:none;}.d{fill:none;}</style></defs><g transform="translate(-1668.949 -982.459)"><g class="a" transform="translate(1668.949 982.459)"><rect class="c" width="67" height="58" rx="10"/><rect class="d" x="0.5" y="0.5" width="66" height="57" rx="9.5"/></g><path class="b" d="M17.153,1.5C7.695,1.5,0,8.425,0,16.938a14.271,14.271,0,0,0,2.726,8.35C2.388,29.026,1.483,31.8.167,33.115a.572.572,0,0,0,.4.976.536.536,0,0,0,.079-.006,30.545,30.545,0,0,0,9.5-3.053,18.612,18.612,0,0,0,7,1.343c9.458,0,17.153-6.925,17.153-15.438S26.611,1.5,17.153,1.5Zm-8,17.725a2.287,2.287,0,1,1,2.287-2.287A2.289,2.289,0,0,1,9.148,19.225Zm8,0a2.287,2.287,0,1,1,2.287-2.287A2.289,2.289,0,0,1,17.153,19.225Zm8,0a2.287,2.287,0,1,1,2.287-2.287A2.289,2.289,0,0,1,25.158,19.225Z" transform="translate(1685.01 993.95)"/></g></svg>