<svg xmlns="http://www.w3.org/2000/svg" width="147.188" height="44" viewBox="0 0 147.188 44"><defs><style>.a{fill:#ff8400;}.b{fill:#004c8a;}</style></defs><g transform="translate(-79.065 -452.903)"><path class="a" d="M99.137,466.972a16.343,16.343,0,0,1,8.3,29.633c-6.054,4.381-13.835,3.771-18.378.614a31.482,31.482,0,0,0,1.282-4.395,33.238,33.238,0,0,0,.049-4.7c.72.7,1.265,1.3,1.889,1.817a8.623,8.623,0,0,0,12.964-2.4,8.467,8.467,0,0,0-5.107-12.526c-.809-.223-1.043-.542-1.019-1.362C99.18,471.455,99.137,469.249,99.137,466.972Z" transform="translate(-2.088 -2.941)"/><path class="b" d="M79.115,499.626c-.014-.324-.037-.594-.037-.865,0-5.309-.029-10.618,0-15.927a16.486,16.486,0,0,1,16.055-16.04c.121,0,.242.023.44.043v7.729c-.423.05-.845.082-1.261.149a8.55,8.55,0,0,0-7.3,8.527c-.028,2.946-.034,5.893-.058,8.839A7.808,7.808,0,0,1,79.115,499.626Z" transform="translate(0 -2.903)"/><path class="b" d="M79.124,453.933a7.716,7.716,0,0,1,6.051,2.876A8.666,8.666,0,0,1,87,461.995c.133,1.952-.274,3.28-2.128,4.392a14.551,14.551,0,0,0-5.3,6.226c-.082.164-.168.327-.263.483-.024.04-.094.051-.185.1Z" transform="translate(-0.012 -0.215)"/><path class="b" d="M137.054,496.687a7.926,7.926,0,0,1-4.671-1.442,9.411,9.411,0,0,1-3.127-3.856,13.1,13.1,0,0,1-1.1-5.489V456.4a3.494,3.494,0,1,1,6.986,0v29.5a5.724,5.724,0,0,0,.649,2.9c.472.812.946.9,1.262.9h1.351a3.017,3.017,0,0,1,2.346,1.021,3.593,3.593,0,0,1,.876,2.473,3.12,3.12,0,0,1-1.348,2.582,5.135,5.135,0,0,1-3.117.911Z" transform="translate(-10.261 0)"/><path class="b" d="M160.68,500.187a13.842,13.842,0,0,1-7.5-2.094,14.861,14.861,0,0,1-5.22-5.645,16.778,16.778,0,0,1-1.9-8.02,15.871,15.871,0,0,1,2.079-8.07,15.446,15.446,0,0,1,5.635-5.663,15.689,15.689,0,0,1,21.563,5.663,15.88,15.88,0,0,1,2.079,8.07v12.05a3.547,3.547,0,1,1-7.094,0v-.044a13.681,13.681,0,0,1-9.638,3.752Zm1.081-25.126a8.533,8.533,0,0,0-4.481,1.209A8.826,8.826,0,0,0,154.1,479.6a9.869,9.869,0,0,0-1.171,4.832,9.75,9.75,0,0,0,1.171,4.778,8.806,8.806,0,0,0,3.176,3.326,8.951,8.951,0,0,0,8.985,0,8.673,8.673,0,0,0,3.122-3.322,9.931,9.931,0,0,0,1.147-4.784,10.05,10.05,0,0,0-1.147-4.838,8.678,8.678,0,0,0-3.123-3.322A8.482,8.482,0,0,0,161.761,475.061Z" transform="translate(-14.002 -3.284)"/><path class="b" d="M195.56,500.028a3.032,3.032,0,0,1-3.33-3.331,4.009,4.009,0,0,1,.282-1.555l-.07-.063.434-.589,14.343-18.941h-12.2a3.331,3.331,0,1,1,0-6.662h18.427a3.032,3.032,0,0,1,3.331,3.331,4.024,4.024,0,0,1-.282,1.556l.069.061-.433.589-14.3,18.942h12.157a3.331,3.331,0,0,1,0,6.662Z" transform="translate(-23.54 -3.341)"/><path class="b" d="M243.883,500.187a17.112,17.112,0,0,1-8.352-2.016,14.869,14.869,0,0,1-5.759-5.589,15.935,15.935,0,0,1-2.08-8.154,16.751,16.751,0,0,1,1.962-8.191,14.476,14.476,0,0,1,5.455-5.6,15.613,15.613,0,0,1,7.963-2.026,14.373,14.373,0,0,1,7.656,1.982,12.99,12.99,0,0,1,4.916,5.46,17.866,17.866,0,0,1,1.675,7.885,3.036,3.036,0,0,1-.945,2.272,3.243,3.243,0,0,1-2.332.9H234.486a8.662,8.662,0,0,0,.9,2.215,9.124,9.124,0,0,0,3.435,3.385,10.125,10.125,0,0,0,5.067,1.247,9.5,9.5,0,0,0,3.167-.576,9.956,9.956,0,0,0,2.627-1.319,3.86,3.86,0,0,1,2.207-.779l.1,0a3.134,3.134,0,0,1,2.078.756,3.345,3.345,0,0,1,1.252,2.343,2.686,2.686,0,0,1-1.175,2.348,15.762,15.762,0,0,1-4.794,2.5A17.169,17.169,0,0,1,243.883,500.187Zm6.723-18.981a9.731,9.731,0,0,0-.736-2.19,7.088,7.088,0,0,0-6.8-4.172,9.11,9.11,0,0,0-4.853,1.233,7.966,7.966,0,0,0-3.027,3.373,9.766,9.766,0,0,0-.638,1.756Z" transform="translate(-31.066 -3.284)"/></g></svg>