<svg xmlns="http://www.w3.org/2000/svg" width="12.051" height="12.073" viewBox="0 0 12.051 12.073"><defs><style>.a{fill:none;stroke:#ff8400;stroke-linecap:round;stroke-linejoin:round;}</style></defs><path class="a" d="M13.162,10.289v1.667a1.111,1.111,0,0,1-1.211,1.111,11,11,0,0,1-4.795-1.706A10.834,10.834,0,0,1,3.822,8.028,11,11,0,0,1,2.116,3.211,1.111,1.111,0,0,1,3.222,2H4.889A1.111,1.111,0,0,1,6,2.956a7.134,7.134,0,0,0,.389,1.561,1.111,1.111,0,0,1-.25,1.172l-.706.706A8.889,8.889,0,0,0,8.767,9.728l.706-.706a1.111,1.111,0,0,1,1.172-.25,7.134,7.134,0,0,0,1.561.389,1.111,1.111,0,0,1,.956,1.128Z" transform="translate(-1.611 -1.5)"/></svg>